<svg fill="#000000" height="36px" width="36px" version="1.1" id="Capa_1" xmlns="http://www.w3.org/2000/svg" xmlns:xlink="http://www.w3.org/1999/xlink" viewBox="0 0 297 297" xml:space="preserve"><g id="SVGRepo_bgCarrier" stroke-width="0"></g><g id="SVGRepo_tracerCarrier" stroke-linecap="round" stroke-linejoin="round"></g><g id="SVGRepo_iconCarrier"> <path d="M287.116,277.233h-94.913c14.551-29.049,23.257-73.26,23.257-120.579c0-40.4-6.175-78.529-17.39-107.365 C185.711,17.505,168.106,0,148.5,0s-37.211,17.505-49.571,49.289c-11.215,28.836-17.39,66.965-17.39,107.365 c0,47.319,8.706,91.53,23.257,120.579H9.884c-5.458,0-9.884,4.425-9.884,9.884C0,292.575,4.425,297,9.884,297h277.233 c5.458,0,9.884-4.425,9.884-9.884C297,281.658,292.575,277.233,287.116,277.233z M101.306,156.654c0-9.149,0.344-18.023,0.979-26.57 l76.231-76.231c3.757,9.218,7.105,20.06,9.826,32.214l-86.669,86.669C101.435,167.422,101.306,162.056,101.306,156.654z M161.102,134.275l34.385,34.385c-0.433,12.925-1.556,25.549-3.29,37.514l-51.497-51.497L161.102,134.275z M195.582,147.788 l-23.997-23.997l20.1-20.1C193.825,117.28,195.202,132.089,195.582,147.788z M130.215,165.161l58.844,58.844 c-4.444,21.29-10.932,39.533-18.911,52.239h-43.298c-11.721-18.668-20.239-49.273-23.758-83.961L130.215,165.161z M148.5,19.767 c7.809,0,15.942,7.202,23.213,19.921l-66.83,66.83C112.558,54.617,131.313,19.767,148.5,19.767z"></path> </g></svg>