<?xml version="1.0" encoding="utf-8"?>
<!-- Generator: Adobe Illustrator 27.2.0, SVG Export Plug-In . SVG Version: 6.00 Build 0)  -->
<svg version="1.1" xmlns="http://www.w3.org/2000/svg" xmlns:xlink="http://www.w3.org/1999/xlink" x="0px" y="0px"
	 viewBox="0 0 1920 1080" enable-background="new 0 0 1920 1080" xml:space="preserve">
<g id="Calque_1">
	<g>
		<path d="M156.046,615.404c-3.895,0.844,4.1,23.267-10.583,26.448c-28.766,6.232-34.498-10.093-56.441-111.373
			c-17.658-81.503-16.199-99.386,6.873-104.385c21.574-4.674,28.935,11.926,36.141,45.186c3.441,15.881,3.875,28.021,4.784,32.217
			c0.584,2.696,1.144,3.83,2.642,3.506c2.697-0.584,6.008-22.948,30.579-28.271c29.065-6.297,55.678,10.838,66.325,59.979
			c10.127,46.745,2.676,84.75-34.779,92.864C169.225,638.586,161.439,614.235,156.046,615.404z M161.183,591.51
			c13.184,0,15.023-18.089,15.023-34.339c0-19.622-7.665-26.061-15.636-26.061c-10.731,0-15.636,9.505-15.636,23.914
			C144.933,574.34,147.079,591.51,161.183,591.51z"/>
		<path d="M251.401,552.266c0-52.428,3.066-69.598,29.126-69.598c21.768,0,20.542,22.075,23.608,22.075
			c3.985,0,14.103-22.995,34.032-22.995c12.57,0,22.688,7.358,22.688,30.354c0,19.622-7.358,28.514-20.235,28.514
			c-15.636,0-23.607-11.651-30.046-11.651c-4.292,0-4.292,4.293-4.292,23.302c0,64.691,0,83.7-26.367,83.7
			C256.307,635.966,251.401,616.344,251.401,552.266z"/>
		<path d="M372.731,560.237c0-62.853,37.098-79.409,71.437-79.409c38.938,0,59.786,19.01,59.786,49.362
			c0,16.25-5.519,40.471-42.31,40.471c-19.315,0-26.673-2.453-30.966-2.453c-1.84,0-2.759,1.227-2.759,3.066
			c0,4.292,3.373,22.075,20.542,22.075c22.382,0,28.514-15.943,39.857-15.943c8.278,0,13.797,7.358,13.797,21.769
			c0,22.994-20.542,38.631-57.946,38.631C393.886,637.806,372.731,601.934,372.731,560.237z M445.7,548.893
			c11.344,0,13.49-1.532,13.49-7.971c0-8.585-2.146-18.396-15.636-18.396c-10.424,0-15.943,7.972-15.943,18.396
			C427.611,547.36,433.437,548.893,445.7,548.893z"/>
		<path d="M552.699,418.896c14.717,0,29.126,6.438,29.126,25.141c0,20.542-14.41,27.287-29.126,27.287
			c-14.41,0-30.353-6.745-30.353-27.287C522.346,425.335,538.289,418.896,552.699,418.896z M524.492,552.266
			c0-52.428,2.146-69.598,28.207-69.598c25.754,0,27.9,16.25,27.9,69.598c0,64.385-2.146,83.7-27.9,83.7
			C526.638,635.966,524.492,616.344,524.492,552.266z"/>
		<path d="M601.444,613.584c0-25.141,49.668-82.167,49.668-87.992c0-1.84-1.227-2.146-2.146-2.146
			c-4.599,0-12.57,2.453-25.141,2.453c-16.25,0-22.688-8.278-22.688-22.382c0-19.315,23.608-22.075,59.173-22.075
			c35.872,0,50.895,4.6,50.895,21.769c0,32.499-56.107,89.526-44.149,89.526c8.278,0,18.089-3.986,30.659-3.986
			c11.038,0,16.556,7.972,16.556,21.155c0,21.155-16.863,27.594-58.253,27.594C625.665,637.499,601.444,635.046,601.444,613.584z"/>
		<path d="M735.118,519.153c0-88.3,4.292-104.855,28.82-104.855c16.556,0,26.367,7.358,26.367,42.923
			c0,18.702-1.227,37.098-2.146,49.975c7.665-16.556,19.929-25.447,35.872-25.447c29.74,0,46.296,16.863,46.296,77.263
			c0,62.852-7.971,76.955-27.287,76.955c-16.863,0-27.287-7.972-27.287-33.112c0-11.037,1.533-31.579,1.533-45.989
			c0-17.782-2.76-25.754-13.184-25.754c-8.278,0-15.33,6.132-15.33,23.301c0,8.278,1.533,26.98,1.533,46.603
			c0,23.915-8.278,34.952-26.367,34.952C735.118,635.966,735.118,604.693,735.118,519.153z"/>
		<path d="M1037.77,629.934c-6.853,4.934-17.503,6.032-32.545,6.032c-31.579,0-38.324-21.769-38.324-120.799
			c0-74.809,1.227-100.562,27.9-100.562c30.353,0,26.367,33.418,26.367,100.562c0,47.522-3.986,70.211,14.41,70.211
			c6.744,0,11.957,3.985,11.957,16.556c0,7.603-0.542,16.121-4.77,22.71c-4.292,6.688-12.496,8.175-15.291,16.296
			c-1.151,3.345-1.313,6.94-2.074,10.395c-0.711,3.227-1.943,6.315-3.261,9.344c-2.185,5.022-4.817,10.162-9.356,13.228
			c-1.929,1.303-4.118,2.167-6.328,2.897c-10.387,3.431-21.682,4.069-32.388,1.828c-3.274-0.685-7.112-2.325-7.447-5.653
			c-0.308-3.056,2.596-5.398,5.287-6.877c3.575-1.964,7.366-3.539,10.817-5.714s6.624-5.065,8.185-8.834
			c0.893-2.155,1.222-4.51,1.241-6.842c0.028-3.453-0.612-6.911-1.875-10.125c-0.939-2.39-2.247-4.838-1.839-7.373"/>
		<path d="M1088.617,418.896c14.717,0,29.127,6.438,29.127,25.141c0,20.542-14.41,27.287-29.127,27.287
			c-14.41,0-30.354-6.745-30.354-27.287C1058.264,425.335,1074.207,418.896,1088.617,418.896z M1060.41,552.266
			c0-52.428,2.146-69.598,28.207-69.598c25.754,0,27.9,16.25,27.9,69.598c0,64.385-2.146,83.7-27.9,83.7
			C1062.557,635.966,1060.41,616.344,1060.41,552.266z"/>
		<path d="M1137.67,552.266c0-80.941,7.664-98.11,28.207-98.11c18.088,0,24.221,5.825,24.221,27.286c0,9.812,7.357,5.52,17.168,5.52
			c7.053,0,11.037,0.306,11.037,18.396c0,19.929-9.504,17.782-17.781,17.782c-7.973,0-9.811-3.985-9.811,30.354
			c0,26.367,4.904,31.579,13.49,31.579c9.197,0,14.408,3.065,14.408,16.862c0,22.075-4.291,34.032-37.404,34.032
			C1148.094,635.966,1137.67,621.862,1137.67,552.266z"/>
		<path d="M1235.775,552.266c0-80.941,7.666-98.11,28.207-98.11c18.09,0,24.221,5.825,24.221,27.286c0,9.812,7.359,5.52,17.17,5.52
			c7.051,0,11.037,0.306,11.037,18.396c0,19.929-9.504,17.782-17.783,17.782c-7.971,0-9.811-3.985-9.811,30.354
			c0,26.367,4.906,31.579,13.49,31.579c9.197,0,14.41,3.065,14.41,16.862c0,22.075-4.293,34.032-37.404,34.032
			C1246.199,635.966,1235.775,621.862,1235.775,552.266z"/>
		<path d="M1330.816,560.237c0-50.589,24.527-79.409,72.969-79.409c48.443,0,72.357,28.82,72.357,79.409
			c0,45.376-23.914,77.568-72.357,77.568C1355.344,637.806,1330.816,605.613,1330.816,560.237z M1403.785,593.655
			c10.73,0,17.783-7.971,17.783-34.338c0-23.302-7.053-30.967-17.783-30.967c-11.037,0-18.395,7.972-18.395,30.967
			C1385.391,585.685,1392.748,593.655,1403.785,593.655z"/>
		<path d="M1494.539,552.266c0-52.428,3.064-69.598,29.125-69.598c21.77,0,20.543,22.075,23.609,22.075
			c3.984,0,14.104-22.995,34.031-22.995c12.57,0,22.688,7.358,22.688,30.354c0,19.622-7.357,28.514-20.234,28.514
			c-15.637,0-23.607-11.651-30.047-11.651c-4.293,0-4.293,4.293-4.293,23.302c0,64.691,0,83.7-26.367,83.7
			C1499.443,635.966,1494.539,616.344,1494.539,552.266z"/>
		<path d="M1607.67,588.75c0-28.206,11.344-48.441,39.244-48.441c26.98,0,37.404,11.957,37.404,4.905
			c0-10.425-0.307-19.929-15.33-19.929c-11.037,0-23.914,2.759-33.111,2.759c-10.117,0-16.557-5.212-16.557-19.315
			c0-16.556,20.848-27.9,53.654-27.9c45.988,0,62.852,17.17,62.852,84.008c0,54.88-4.293,72.97-22.688,72.97
			c-14.104,0-18.396-16.863-21.463-16.863c-3.371,0-10.117,16.863-36.178,16.863C1621.16,637.806,1607.67,615.424,1607.67,588.75z
			 M1666.535,601.014c7.666,0,16.863-6.745,16.863-15.942c0-9.505-10.73-15.023-16.863-15.023c-5.824,0-10.424,2.453-10.424,15.023
			C1656.111,597.948,1660.711,601.014,1666.535,601.014z"/>
		<path d="M1757.287,515.167c0-74.809,1.227-100.562,27.9-100.562c30.352,0,26.367,33.418,26.367,100.562
			c0,47.522-3.986,70.211,14.408,70.211c6.746,0,11.957,3.985,11.957,16.556c0,29.74-12.57,34.032-42.309,34.032
			C1764.031,635.966,1757.287,614.197,1757.287,515.167z"/>
	</g>
</g>
<g id="Calque_2">
	<g>
		<g>
			<path fill="#5BC0F8" d="M108.811,691.427c7.81-4.044,15.562-8.362,23.68-11.769c-1.418,0.595,1.755-0.677,1.59-0.614
				c0.797-0.304,1.598-0.597,2.404-0.876c1.563-0.541,3.141-1.034,4.741-1.457c1.558-0.412,3.128-0.745,4.713-1.035
				c1.778-0.325-2.304,0.152,0.724-0.111c1.125-0.098,2.246-0.188,3.375-0.224c3.296-0.104,6.708,0.204,8.629,0.56
				c4.369,0.81,8.638,2.088,12.809,3.609c8.772,3.199,17.108,7.046,26.379,8.678c17.008,2.994,33.141-0.419,49.478-5.184
				c8.223-2.398,16.692-5.352,24.387-5.622c1.659-0.058,3.321-0.036,4.978,0.074c0.631,0.042,1.261,0.103,1.89,0.165
				c-2.129-0.209,0.815,0.144,1.041,0.186c3.201,0.596,6.329,1.522,9.392,2.619c14.202,5.084,27.557,12.181,42.948,13.084
				c15.394,0.903,28.989-6.442,42.358-12.994c5.94-2.911,10.423-4.996,17.785-6.289c-1.682,0.295,0.398-0.055,0.827-0.085
				c0.834-0.058,1.665-0.12,2.502-0.138c1.683-0.037,3.366,0.038,5.04,0.214c-2.155-0.226,0.766,0.164,1.007,0.213
				c0.584,0.119,1.167,0.252,1.745,0.398c1.716,0.431,3.363,1.008,5.026,1.602c2.609,0.933-1.046-0.51,0.467,0.197
				c0.654,0.306,1.307,0.611,1.953,0.936c1.288,0.647,2.551,1.343,3.796,2.069c2.736,1.596,5.373,3.354,7.984,5.145
				c4.879,3.346,9.671,6.867,14.898,9.664c13.587,7.272,28.248,8.041,42.375,1.672c7.123-3.211,12.686-8.963,18.094-14.44
				c1.233-1.248,2.467-2.496,3.746-3.696c0.753-0.707,1.518-1.403,2.305-2.073c1.498-1.273,0.761-0.635,0.402-0.365
				c0.795-0.596,1.63-1.15,2.484-1.659c-0.214,0.127,2.601-1.382,1.454-0.855c-1.112,0.511,1.789-0.602,1.593-0.545
				c-0.008,0.002,3.246-0.618,1.726-0.447c3.507-0.395,5.615,0.21,8.621,1.4c2.732,1.082,6.634,3.455,9.604,5.353
				c7.255,4.634,14.115,9.327,22.125,12.617c7.528,3.092,15.767,4.923,23.938,4.226c7.593-0.647,14.41-3.023,21.35-6.041
				c3.094-1.345,6.141-2.793,9.21-4.192c3.696-1.685,5.107-2.317,8.891-3.678c3.843-1.382,7.726-2.366,11.679-3.353
				c0.4-0.1,1.908-0.212,0.039-0.04c0.864-0.08,1.727-0.136,2.595-0.148c0.568-0.007,1.139,0.002,1.707,0.027
				c0.564,0.025,1.127,0.066,1.689,0.121c-1.204-0.185-1.236-0.186-0.096-0.002c2.793,0.592,5.448,1.352,8.117,2.374
				c-1.896-0.726,1.867,0.872,2.402,1.136c1.58,0.779,3.133,1.612,4.671,2.471c5.437,3.036,10.665,6.438,16.182,9.331
				c13.229,6.937,27.264,9.745,41.365,3.537c5.821-2.563,10.652-6.835,14.674-11.704c1.635-1.979,3.166-4.042,4.791-6.03
				c0.776-0.95,1.566-1.892,2.404-2.787c0.408-0.436,0.823-0.863,1.254-1.276c0.448-0.43,2.519-1.958,0.415-0.512
				c0.966-0.664,1.915-1.231,2.956-1.769c-2.742,1.417,2.926-0.325-0.073-0.016c1.369-0.141,2.773-0.148,4.14,0.022
				c-2.196-0.272,1.036,0.321,1.197,0.363c0.847,0.22,1.666,0.503,2.497,0.775c-2.227-0.73,1.084,0.627,1.678,0.99
				c0.52,0.318,1.012,0.675,1.522,1.009c1.232,0.807-1.707-1.555,0.041,0.017c1.982,1.782,3.927,3.577,5.834,5.441
				c4.494,4.391,9.209,8.338,15.106,10.663c6.875,2.71,14.546,2.368,21.583,0.432c7.111-1.957,13.103-5.6,19.01-9.859
				c1.026-0.74,2.057-1.479,3.137-2.14c0.681-0.417,3.901-1.726,1.662-1.014c0.697-0.222,4.262-0.893,2.123-0.715
				c0.929-0.077,1.856-0.107,2.788-0.077c-0.011,0,2.755,0.268,1.7,0.114c1.628,0.239,3.177,0.701,4.739,1.189
				c2.396,0.748-1.535-0.984,0.66,0.323c0.476,0.284,0.991,0.52,1.475,0.794c2.797,1.583,5.392,3.496,7.978,5.396
				c5.441,3.999,10.887,7.857,17.408,9.923c8.059,2.553,16.208,1.068,23.614-2.655c4.717-2.372,6.054-9.027,3.508-13.379
				c-2.808-4.801-8.644-5.889-13.379-3.508c-0.953,0.479-1.648,0.663-3.418,1.195c-2.406,0.722,1.394,0.244-0.999,0.119
				c-0.72-0.038-1.441-0.01-2.163-0.06c-1.511-0.105,2.074,0.7-0.334-0.117c-0.658-0.223-1.362-0.395-2.031-0.588
				c-0.497-0.144-2.156-0.949-0.433-0.125c-0.782-0.374-1.554-0.763-2.311-1.183c-5.58-3.099-10.35-7.415-15.741-10.804
				c-6.431-4.042-14.056-6.428-21.705-6.189c-6.96,0.217-12.911,2.831-18.466,6.846c-6.056,4.376-10.171,7.063-17.203,8.393
				c1.435-0.271-2.374,0.142-3.023,0.124c-0.561-0.015-1.119-0.057-1.678-0.107c2.416,0.22-0.033-0.09-0.501-0.214
				c-0.479-0.127-0.956-0.329-1.435-0.439c-2.134-0.488,1.429,1.056-0.335-0.165c-1.166-0.807-2.445-1.448-3.606-2.284
				c1.96,1.411-0.719-0.696-1.298-1.225c-0.887-0.811-1.744-1.653-2.604-2.492c-1.905-1.859-3.786-3.737-5.834-5.441
				c-5.871-4.883-12.227-7.863-19.858-8.765c-6.516-0.771-13.052,0.839-18.351,4.737c-4.769,3.509-8.082,8.088-11.774,12.636
				c-1.667,2.053-3.414,4.053-5.389,5.819c0,0-2.041,1.64-0.888,0.778c1.169-0.874-1.049,0.664-1.03,0.652
				c-0.597,0.375-1.216,0.7-1.831,1.042c-0.38,0.202-0.767,0.391-1.161,0.566c0.813-0.343,0.684-0.308-0.387,0.106
				c-1.458,0.498-2.927,0.846-4.428,1.189c-2.691,0.615,1.202-0.039-0.425,0.048c-0.71,0.038-1.415,0.088-2.127,0.091
				c-0.61,0.003-4.658-0.446-2.399-0.051c-1.649-0.288-3.269-0.658-4.871-1.146c-1.348-0.411-2.673-0.895-3.98-1.422
				c1.862,0.751-1.902-0.925-2.367-1.157c-2.898-1.448-5.707-3.067-8.496-4.712c-5.335-3.147-10.607-6.46-16.27-9
				c-6.538-2.932-13.233-5.098-20.474-5.212c-7.834-0.124-15.73,2.401-22.954,5.205c-7.009,2.72-13.689,6.151-20.613,9.059
				c1.866-0.783-0.916,0.343-1.058,0.397c-0.562,0.215-1.127,0.425-1.695,0.625c-1.406,0.496-2.828,0.947-4.271,1.326
				c-1.44,0.378-2.902,0.701-4.376,0.915c2.217-0.321-0.785,0.014-1.027,0.027c-0.938,0.051-1.88,0.066-2.818,0.045
				c-0.975-0.022-1.95-0.082-2.92-0.18c1.499,0.151-0.203-0.028-0.439-0.075c-1.812-0.356-3.602-0.765-5.37-1.301
				c-3.865-1.171-7.471-2.829-10.962-4.855c-6.81-3.954-13.017-8.917-20.095-12.416c-8.222-4.065-17.035-6.202-26.143-4.058
				c-7.998,1.883-14.529,7.348-20.215,13.007c-2.626,2.613-5.155,5.326-7.9,7.816c-1.798,1.631-4.968,3.913-6.941,4.705
				c-1.612,0.647-3.287,1.161-4.972,1.579c-0.789,0.196-1.582,0.347-2.377,0.515c-2.891,0.608,1.092-0.04-0.611,0.073
				c-1.614,0.108-3.193,0.044-4.805,0.046c-0.415,0.001-1.96-0.206,0.092,0.08c-0.954-0.133-1.9-0.328-2.836-0.552
				c-1.331-0.317-2.608-0.758-3.908-1.175c-0.497-0.159-2.192-0.899-0.314-0.074c-0.75-0.33-1.491-0.679-2.224-1.045
				c-2.608-1.301-5.103-2.814-7.544-4.402c-5.155-3.352-10.064-7.073-15.316-10.278c-12.772-7.795-27.023-11.147-41.787-7.683
				c-7.144,1.676-13.919,4.879-20.47,8.115c-2.948,1.456-5.873,2.958-8.842,4.372c-3.783,1.801-4.514,2.181-8.559,3.497
				c-1.557,0.506-3.135,0.953-4.731,1.317c-0.643,0.147-1.292,0.258-1.936,0.401c-2.969,0.657,1.709-0.012-1.357,0.201
				c-1.714,0.119-3.408,0.209-5.127,0.151c-2.804-0.095-2.773-0.156-5.117-0.64c-7.513-1.552-14.725-4.084-21.804-7.003
				c-13.008-5.365-25.437-9.844-39.791-8.069c-9.557,1.182-18.59,4.286-27.817,6.906c-3.755,1.066-7.525,2.084-11.335,2.936
				c-1.774,0.397-3.557,0.756-5.349,1.064c0.081-0.014-3.374,0.496-1.601,0.269c-1.04,0.133-2.086,0.232-3.132,0.314
				c-8.134,0.637-13.988-0.056-21.596-2.192c-9.087-2.552-17.484-6.994-26.614-9.416c-16.105-4.273-31.173-1.936-46.245,4.598
				c-8.089,3.507-15.857,7.718-23.68,11.769c-4.688,2.428-6.077,8.988-3.508,13.379C98.214,692.676,104.104,693.864,108.811,691.427
				L108.811,691.427z"/>
		</g>
	</g>
</g>
<g id="Calque_4">
	<g>
		<g>
			<path fill="#FFC93C" d="M1318.241,470.044c3.707,8.775,10.891,15.571,17.026,22.655c1.204,1.391,3.519,2.197,5.303,2.197
				c1.84,0,4.037-0.817,5.303-2.197c1.312-1.429,2.286-3.306,2.197-5.303c-0.093-2.069-0.838-3.734-2.197-5.303
				c-3.425-3.956-7.064-7.729-10.27-11.871c0.391,0.506,0.782,1.012,1.173,1.518c-2.203-2.877-4.169-5.92-5.583-9.267
				c-0.677-1.603-2.894-3.009-4.482-3.447c-1.795-0.494-4.186-0.271-5.779,0.756c-1.601,1.032-3.011,2.57-3.447,4.482
				c-0.089,0.665-0.179,1.329-0.268,1.994C1317.221,467.613,1317.562,468.875,1318.241,470.044L1318.241,470.044z"/>
		</g>
	</g>
	<g>
		<g>
			<path fill="#FFC93C" d="M1344.317,454.845c1.054,0.685,2.081,1.405,3.08,2.168c-0.506-0.391-1.012-0.782-1.518-1.173
				c2.473,1.919,4.716,4.093,6.636,6.569c-0.391-0.506-0.782-1.012-1.173-1.518c1.661,2.186,3.031,4.552,4.106,7.078
				c-0.252-0.597-0.504-1.194-0.756-1.792c0.89,2.149,1.554,4.369,2.032,6.644c0.806,3.846,5.538,6.432,9.226,5.238
				c4.064-1.315,6.102-5.106,5.238-9.226c-1.095-5.222-3.2-10.418-6.33-14.758c-3.553-4.925-7.876-8.873-12.969-12.183
				c-3.296-2.142-8.431-0.774-10.261,2.691C1339.651,448.321,1340.799,452.558,1344.317,454.845L1344.317,454.845z"/>
		</g>
	</g>
	<g>
		<g>
			<path fill="#FFC93C" d="M1373.789,437.782c0.805,1.017-0.816-1.089-0.271-0.359c0.206,0.276,0.416,0.55,0.62,0.828
				c0.362,0.493,0.717,0.991,1.065,1.494c0.715,1.036,1.398,2.095,2.043,3.176c1.253,2.101,2.35,4.286,3.305,6.537
				c-0.252-0.597-0.504-1.194-0.756-1.792c1.939,4.669,3.175,9.56,3.955,14.548c0.272,1.736,1.998,3.635,3.447,4.482
				c1.608,0.941,3.977,1.339,5.779,0.756c1.815-0.587,3.566-1.712,4.482-3.447c1.001-1.895,1.085-3.675,0.756-5.779
				c-0.899-5.745-2.499-11.175-4.786-16.516c-2.278-5.319-5.455-10.013-9.033-14.536c-1.111-1.405-3.602-2.197-5.303-2.197
				c-1.839,0-4.037,0.817-5.303,2.197c-1.312,1.429-2.286,3.306-2.197,5.303C1371.687,434.594,1372.486,436.135,1373.789,437.782
				L1373.789,437.782z"/>
		</g>
	</g>
	<g>
		<g>
			<path fill="#FFC93C" d="M1416.51,428.158c0.157,1.772,0.062,3.535-0.164,5.296c0.089-0.665,0.179-1.329,0.268-1.994
				c-0.725,5.216-2.483,10.205-3.694,15.314c-0.676,2.852-1.211,5.803-1.31,8.736c-0.113,3.377,0.65,6.395,1.96,9.461
				c0.686,1.604,2.887,3.007,4.482,3.447c1.795,0.494,4.186,0.271,5.779-0.756c1.601-1.032,3.011-2.57,3.447-4.482
				c0.479-2.101,0.082-3.818-0.756-5.779c-0.036-0.085-0.073-0.171-0.109-0.256c0.252,0.597,0.504,1.194,0.756,1.792
				c-0.348-0.885-0.573-1.789-0.71-2.729c0.089,0.665,0.179,1.329,0.268,1.994c-0.215-1.747-0.12-3.494,0.11-5.235
				c-0.089,0.665-0.179,1.329-0.268,1.994c0.618-4.307,1.968-8.465,3.067-12.663c1.191-4.547,2.291-9.416,1.872-14.138
				c-0.179-2.025-0.716-3.823-2.197-5.303c-1.301-1.301-3.435-2.28-5.303-2.197C1420.243,420.827,1416.139,423.973,1416.51,428.158
				L1416.51,428.158z"/>
		</g>
	</g>
	<g>
		<g>
			<path fill="#FFC93C" d="M1449.521,444.017c-0.322,1.794-0.863,3.51-1.563,5.191c0.252-0.597,0.504-1.194,0.756-1.792
				c-2.994,6.96-7.988,12.87-9.762,20.38c-0.901,3.811,1.19,8.304,5.238,9.226c3.843,0.875,8.261-1.154,9.226-5.238
				c0.34-1.438,0.806-2.828,1.371-4.193c-0.252,0.597-0.504,1.194-0.756,1.792c3.098-7.246,8.528-13.434,9.954-21.378
				c0.364-2.026,0.316-3.947-0.756-5.779c-0.91-1.556-2.694-3.039-4.482-3.447C1455.084,437.945,1450.262,439.888,1449.521,444.017
				L1449.521,444.017z"/>
		</g>
	</g>
	<g>
		<g>
			<path fill="#FFC93C" d="M1474.699,490.232c4.752-4.569,8.293-10.321,13.54-14.386c-0.506,0.391-1.012,0.782-1.518,1.173
				c1.316-0.997,2.713-1.854,4.232-2.505c-0.597,0.252-1.194,0.504-1.792,0.756c0.24-0.098,0.48-0.192,0.724-0.283
				c1.87-0.695,3.445-1.674,4.482-3.447c0.941-1.608,1.339-3.977,0.756-5.779c-0.587-1.815-1.712-3.566-3.447-4.482
				c-1.695-0.896-3.908-1.451-5.779-0.756c-1.488,0.553-2.983,1.165-4.366,1.953c-1.391,0.792-2.64,1.781-3.899,2.764
				c-1.74,1.357-3.308,2.901-4.791,4.533c-2.954,3.25-5.577,6.804-8.749,9.854c-2.834,2.724-2.945,7.903,0,10.607
				C1467.134,493.025,1471.675,493.139,1474.699,490.232L1474.699,490.232z"/>
		</g>
	</g>
	<g>
	</g>
	<g>
	</g>
	<g>
	</g>
	<g>
	</g>
	<g>
	</g>
</g>
</svg>
